<svg width="35" height="35" fill="none" xmlns="http://www.w3.org/2000/svg"><path d="M30.27 7.868l-3.64-3.637a2.763 2.763 0 00-1.96-.813c-.74 0-1.438.29-1.961.813l-3.917 3.917a2.763 2.763 0 00-.814 1.959c0 .742.291 1.439.814 1.962l2.864 2.864a13.463 13.463 0 01-2.751 3.968 13.514 13.514 0 01-3.969 2.762L12.073 18.8a2.763 2.763 0 00-1.958-.814c-.742 0-1.44.29-1.962.814l-3.92 3.913a2.765 2.765 0 00-.814 1.962c0 .742.29 1.44.813 1.962l3.634 3.634a4.492 4.492 0 003.168 1.312c.25 0 .489-.02.725-.062 4.607-.758 9.177-3.209 12.865-6.893 3.685-3.682 6.132-8.248 6.9-12.87a4.498 4.498 0 00-1.253-3.889z" fill="#8B1414"/></svg>