<svg width="81" height="73" fill="none" xmlns="http://www.w3.org/2000/svg"><path fill-rule="evenodd" clip-rule="evenodd" d="M16.875 8.79v51.078c0 1.355.533 2.654 1.483 3.612a5.04 5.04 0 003.58 1.496h21.937v-6.018a6.792 6.792 0 01-2.861-3.292 6.868 6.868 0 01-.284-4.37 6.814 6.814 0 012.41-3.64 6.71 6.71 0 014.11-1.407 6.71 6.71 0 014.11 1.407 6.814 6.814 0 012.41 3.64 6.868 6.868 0 01-.284 4.37 6.792 6.792 0 01-2.861 3.292v6.018h8.438a5.04 5.04 0 003.58-1.496 5.131 5.131 0 001.482-3.612V8.79a5.131 5.131 0 00-1.483-3.612 5.04 5.04 0 00-3.58-1.496H21.938a5.04 5.04 0 00-3.58 1.496 5.131 5.131 0 00-1.483 3.612zM47.25 56.463a3.36 3.36 0 002.386-.997 3.42 3.42 0 00.989-2.408 3.42 3.42 0 00-.989-2.408 3.36 3.36 0 00-2.386-.997 3.36 3.36 0 00-2.386.997 3.421 3.421 0 00-.989 2.408c0 .903.356 1.77.989 2.408a3.36 3.36 0 002.386.997zM30.375 15.6c0-.451.178-.885.494-1.204a1.68 1.68 0 011.194-.499h16.874c.448 0 .877.18 1.194.5a1.71 1.71 0 010 2.407 1.68 1.68 0 01-1.194.499H32.064a1.68 1.68 0 01-1.194-.499 1.71 1.71 0 01-.494-1.204zm-5.063 8.513c-.447 0-.876.18-1.193.499a1.71 1.71 0 000 2.408c.317.32.746.498 1.194.498h30.375c.447 0 .876-.179 1.193-.498a1.71 1.71 0 000-2.408 1.68 1.68 0 00-1.194-.499H25.314zm-1.687 8.513c0-.451.178-.884.494-1.204a1.68 1.68 0 011.194-.498h30.375c.447 0 .876.18 1.193.498a1.71 1.71 0 010 2.408 1.68 1.68 0 01-1.194.499H25.314a1.68 1.68 0 01-1.194-.499 1.71 1.71 0 01-.494-1.204zm1.688 5.108c-.448 0-.877.18-1.194.499a1.71 1.71 0 000 2.408c.317.32.746.498 1.194.498h30.375c.447 0 .876-.179 1.193-.498a1.71 1.71 0 000-2.408 1.68 1.68 0 00-1.194-.499H25.314z" fill="#8B1414"/><path d="M43.875 71.787v-6.81h6.75v6.81l-3.375-2.554-3.375 2.554z" fill="#8B1414"/></svg>