<svg width="84" height="73" fill="none" xmlns="http://www.w3.org/2000/svg"><path d="M36.352 65.8s-4.9 0-4.9-4.968c0-4.97 4.9-19.877 24.5-19.877 19.602 0 24.502 14.907 24.502 19.877 0 4.969-4.9 4.969-4.9 4.969H36.351zm19.6-29.815c3.9 0 7.639-1.57 10.396-4.366a15.015 15.015 0 004.306-10.541 15.02 15.02 0 00-4.306-10.542A14.598 14.598 0 0055.953 6.17c-3.9 0-7.638 1.57-10.395 4.366a15.014 15.014 0 00-4.306 10.542c0 3.953 1.549 7.745 4.306 10.541a14.598 14.598 0 0010.395 4.366z" fill="#8B1414"/><path fill-rule="evenodd" clip-rule="evenodd" d="M27.609 65.803a11.253 11.253 0 01-1.059-4.969c0-6.733 3.333-13.665 9.487-18.485a30.596 30.596 0 00-9.487-1.392c-19.6 0-24.501 14.908-24.501 19.877 0 4.97 4.9 4.97 4.9 4.97h20.66z" fill="#8B1414"/><path d="M24.1 35.987c3.25 0 6.365-1.31 8.663-3.639a12.512 12.512 0 003.588-8.784c0-3.295-1.29-6.455-3.588-8.785a12.165 12.165 0 00-8.663-3.638 12.166 12.166 0 00-8.662 3.638 12.512 12.512 0 00-3.588 8.785 12.51 12.51 0 003.588 8.784 12.165 12.165 0 008.662 3.639z" fill="#8B1414"/></svg>