<svg width="73" height="73" fill="none" xmlns="http://www.w3.org/2000/svg"><g clip-path="url(#clip0_111_316)" fill="#8B1414"><path d="M62.861 16.223h-18.25v50.694h22.306V20.278a4.055 4.055 0 00-4.056-4.055zM52.722 50.695h-4.055v-4.056h4.055v4.056zm0-10.139h-4.055V36.5h4.055v4.056zm0-10.139h-4.055v-4.056h4.055v4.056zm8.111 20.278h-4.055v-4.056h4.056v4.056zm0-10.139h-4.055V36.5h4.056v4.056zm0-10.139h-4.055v-4.056h4.056v4.056zM36.257 6.084H12.41a4.299 4.299 0 00-4.299 4.299v56.534h10.14v-6.083h12.166v6.083h10.139V10.383a4.299 4.299 0 00-4.3-4.299zM18.25 50.695h-4.055V46.64h4.055v4.056zm0-10.139h-4.055v-4.055h4.055v4.055zm0-10.139h-4.055v-4.055h4.055v4.055zm0-10.139h-4.055v-4.055h4.055v4.055zm8.111 30.417h-4.055V46.64h4.055v4.056zm0-10.139h-4.055v-4.055h4.055v4.055zm0-10.139h-4.055v-4.055h4.055v4.055zm0-10.139h-4.055v-4.055h4.055v4.055zm8.111 30.417h-4.055V46.64h4.055v4.056zm0-10.139h-4.055v-4.055h4.055v4.055zm0-10.139h-4.055v-4.055h4.055v4.055zm0-10.139h-4.055v-4.055h4.055v4.055z"/></g><defs><clipPath id="clip0_111_316"><path fill="#fff" d="M0 0h73v73H0z"/></clipPath></defs></svg>