<svg width="73" height="73" fill="none" xmlns="http://www.w3.org/2000/svg"><path d="M69.93 28.104l-.877-.876a6.428 6.428 0 00-1.142-7.225 6.105 6.105 0 00-4.716-1.764 6.971 6.971 0 00-2.362.562V4.055H4.055v64.889h56.778v-32.81l6.265-6.266.536.534a.752.752 0 010 1.064l-4.772 4.774a1.622 1.622 0 102.294 2.295l4.773-4.773a4.003 4.003 0 000-5.658zM16.22 16.627h32.45v3.244H16.22v-3.244zm0 8.111h32.45v3.245H16.22v-3.245zm0 8.111h21.292v3.245H16.221v-3.245zm29.993 27.773H30.392c-1.83 0-3.541-.175-4.45-1.671-.93-1.531-.006-3.31.67-4.611.12-.23-.146-.514-.45-.2-.893.917-2.312 2.568-3.454 3.894-1.206 1.403-1.685 1.953-1.94 2.184a1.865 1.865 0 01-2.243.454 1.763 1.763 0 01-.825-1.965c.085-.507 1.533-6.148 2.845-11.22-1.744 3.097-7.28 12.37-7.54 12.806a1.42 1.42 0 11-2.44-1.456c.072-.116 7.007-11.737 7.88-13.424a2.89 2.89 0 013.602-1.608 2.666 2.666 0 011.531 3.297c-.73 2.815-1.474 5.703-2.048 7.95.927-1.071 1.896-2.17 2.596-2.89a3.85 3.85 0 014.542-1.049 2.4 2.4 0 011.249 2.677 9.242 9.242 0 01-.787 1.857c-.541 1.126-.284 2.134 1.262 2.134h15.822a1.42 1.42 0 110 2.839v.002zm-4.218-10.24l-5.28 1.392a.442.442 0 01-.438-.117.437.437 0 01-.12-.438l1.347-5.27 13.363-13.363 4.461 4.46-13.333 13.335zm23.25-23.253l-7.623 7.624-4.462-4.46 7.625-7.625a3.952 3.952 0 012.575-1.189l.183-.006a2.886 2.886 0 012.072.826 3.447 3.447 0 01-.37 4.83z" fill="#8B1414"/></svg>