<svg width="71" height="74" fill="none" xmlns="http://www.w3.org/2000/svg"><path fill-rule="evenodd" clip-rule="evenodd" d="M4.734 10.1a7.1 7.1 0 017.1-7.1h38.847l15.587 15.587V66.9a7.1 7.1 0 01-7.1 7.1H11.834a7.1 7.1 0 01-7.1-7.1V10.1zm28.4 11.833h-14.2v4.734h14.2v-4.734zm18.934 14.2H18.934v4.734h33.134v-4.734zM29.845 54.631c-1.913.511-3.408 1.974-3.929 3.55l-4.497-1.495c1.056-3.158 3.82-5.718 7.195-6.627 3.346-.9 7.166-.142 10.47 2.892a13.015 13.015 0 012.944-.507c2.556-.137 4.843.507 6.807 1.326 1.444.6 2.84 1.358 4.023 1.997.37.208.724.398 1.051.568 1.529.805 2.367 1.098 2.892 1.098v4.734c-1.846 0-3.664-.89-5.093-1.638-.43-.227-.86-.458-1.288-.691a36.407 36.407 0 00-3.407-1.7c-1.581-.662-3.139-1.05-4.73-.965a7.967 7.967 0 00-.71.066l.006.067c.127 1.533-.507 2.797-1.326 3.706-1.505 1.675-3.962 2.556-5.807 2.887a9.29 9.29 0 01-2.907.118 4.26 4.26 0 01-1.562-.52 2.95 2.95 0 01-1.434-2.05 3.205 3.205 0 01.525-2.272 6.061 6.061 0 011.24-1.335c.9-.743 2.202-1.547 3.948-2.428l.128-.094a5.82 5.82 0 00-4.544-.687h.005z" fill="#8B1414"/></svg>