<svg width="69" height="73" fill="none" xmlns="http://www.w3.org/2000/svg"><path d="M66 59.111A6.889 6.889 0 0159.111 66H10.89A6.889 6.889 0 014 59.111V10.89A6.889 6.889 0 0110.889 4H59.11A6.889 6.889 0 0166 10.889V59.11z" fill="#8B1414"/><path d="M54.426 14.956a4.309 4.309 0 00-5.955 1.268L29.723 45.12l-8.661-8.008a4.306 4.306 0 10-5.846 6.322l12.416 11.48a4.286 4.286 0 002.92 1.146 4.293 4.293 0 003.616-1.962c.572-.871 21.528-33.187 21.528-33.187a4.304 4.304 0 00-1.27-5.956z" fill="#fff"/></svg>