<svg width="390" height="147" fill="none" xmlns="http://www.w3.org/2000/svg"><path d="M1.1 40.385v-3.93h18.517v3.93h-6.902V59H8.003V40.385H1.101zM24.837 59V36.455h15.192v3.93H29.603v5.372h9.644v3.93h-9.644v5.383h10.47V59H24.836zm25.622-22.545l4.546 7.684h.176l4.569-7.684h5.383l-6.88 11.272L65.285 59h-5.482l-4.624-7.695h-.176L50.38 59h-5.46l7.057-11.273-6.925-11.272h5.406zM70.317 59V36.455h4.767v9.302h9.676v-9.302h4.756V59H84.76v-9.313h-9.676V59h-4.767zm46.017-11.273c0 2.459-.466 4.55-1.398 6.275-.925 1.725-2.187 3.042-3.787 3.952-1.592.903-3.383 1.354-5.372 1.354-2.004 0-3.802-.455-5.394-1.365-1.593-.91-2.852-2.227-3.776-3.952-.925-1.724-1.387-3.813-1.387-6.264 0-2.458.462-4.55 1.387-6.275.924-1.724 2.183-3.038 3.776-3.94 1.592-.91 3.39-1.366 5.394-1.366 1.989 0 3.78.455 5.372 1.365 1.6.903 2.862 2.217 3.787 3.941.932 1.725 1.398 3.817 1.398 6.275zm-4.833 0c0-1.592-.238-2.935-.715-4.029-.47-1.093-1.134-1.923-1.993-2.488-.858-.565-1.864-.847-3.016-.847s-2.158.282-3.016.847c-.859.565-1.527 1.395-2.004 2.488-.47 1.094-.705 2.437-.705 4.03 0 1.592.235 2.935.705 4.028.477 1.094 1.145 1.923 2.004 2.488.858.565 1.864.848 3.016.848s2.158-.283 3.016-.848c.859-.565 1.523-1.394 1.993-2.488.477-1.093.715-2.436.715-4.029zm20.981-1.86v3.72H122.2v-3.72h10.282zm26.147-1.52h-4.822a4.724 4.724 0 00-.539-1.662 4.246 4.246 0 00-1.046-1.255 4.614 4.614 0 00-1.475-.792 5.647 5.647 0 00-1.795-.275c-1.167 0-2.183.29-3.049.87-.866.572-1.538 1.408-2.015 2.51-.477 1.093-.715 2.421-.715 3.984 0 1.608.238 2.958.715 4.051.485 1.094 1.16 1.92 2.026 2.477.866.558 1.868.837 3.005.837a5.94 5.94 0 001.773-.253 4.666 4.666 0 001.464-.738c.425-.33.778-.73 1.057-1.2.286-.47.484-1.005.594-1.607l4.822.022a8.73 8.73 0 01-.936 2.994 9.001 9.001 0 01-1.993 2.565c-.829.749-1.82 1.343-2.972 1.784-1.145.433-2.44.65-3.886.65-2.011 0-3.809-.456-5.394-1.366-1.578-.91-2.826-2.227-3.743-3.952-.91-1.724-1.365-3.813-1.365-6.264 0-2.458.462-4.55 1.387-6.275.925-1.724 2.18-3.038 3.765-3.94 1.585-.91 3.369-1.366 5.35-1.366 1.307 0 2.517.184 3.633.55a9.208 9.208 0 012.983 1.608 8.268 8.268 0 012.114 2.565c.55 1.013.903 2.172 1.057 3.479zm24.754-7.892V59h-4.712V40.33h-9.115V59h-4.712V36.455h18.539zM190.092 59V36.455h15.192v3.93h-10.425v5.372h9.643v3.93h-9.643v5.383h10.469V59h-15.236zm34.791 0l-7.244-9.61h-1.629V59h-4.767V36.455h4.767v9.005h.958l7.486-9.005h5.933l-8.796 10.458L230.795 59h-5.912zm9.62-18.615v-3.93h18.516v3.93h-6.902V59h-4.712V40.385h-6.902zM258.239 59V36.455h8.895c1.71 0 3.166.326 4.37.98 1.204.645 2.121 1.544 2.752 2.696.639 1.145.958 2.466.958 3.963 0 1.498-.323 2.819-.969 3.963-.646 1.145-1.581 2.037-2.807 2.676-1.218.638-2.694.957-4.426.957h-5.669v-3.82h4.899c.917 0 1.673-.157 2.268-.473.601-.323 1.049-.767 1.343-1.332.301-.572.451-1.23.451-1.97 0-.75-.15-1.402-.451-1.96a3.02 3.02 0 00-1.343-1.31c-.602-.316-1.365-.473-2.29-.473h-3.215V59h-4.766z" fill="#fff"/><path d="M390 73.767h-39.598l-1.979 5.886V68.952l-1.98 13.912V66.276l-1.98 13.376-.66-10.701-3.3 21.402V56.646l-2.64 23.542-1.32-11.236-2.639 36.384V42.734l-2.64 41.735-1.32-20.867-3.3 82.398V1l-3.3 84.539V61.996l-2.64 43.34V42.734l-3.959 37.454-.66-11.236-2.64 21.937V56.646l-1.98 17.121h-2.64l-1.98 8.561V66.277l-.66 7.49H0" stroke="#FEE" stroke-width="2"/><path d="M126.25 127c-1.087-6.534-10.826-11.102-33.25-19.75 74.015-8.053 97.264-9.886 112-9.074-59.771 24.625-63.352 23.976-78.75 28.824z" fill="#BE2222"/><path d="M91 107c53.835-6.11 80.498-8.535 114-9" stroke="#fff"/><path d="M254 97.454L206.041 98H205c11.46-9.096 18.201-11.679 30.413-12 9.942.545 14.032 3.537 18.587 11.454z" fill="#fff" stroke="#fff"/><path d="M225.221 118.133c21.745-1.747 28.442-5.411 28.778-19.632-46.8 18.86-66.4 24.513-85.106 21.257 20.234 4.894 32.594 4.454 56.328-1.625zM51.54 124.135c-8.778-.368-19.368-2.716-26.983-4.007-7.615-1.291-.586-.568-.586-.568 22.576-1.442 34.117-4.675 54.581-10.703-5 10.481-9.687 15.004-27.012 15.278z" fill="#fff"/><path d="M78.552 108.857c-5 10.481-9.687 15.004-27.012 15.278-8.778-.368-19.368-2.716-26.983-4.007-7.615-1.291-.586-.568-.586-.568 22.576-1.442 34.117-4.675 54.581-10.703zm0 0c3.166-1.782 9.258 1.837 7.919-.856-1.34-2.693 4.29-1.315 7.528 0 13.801 4.342 30.279 12.424 32.5 19 30.514-9.707 43.359-14.535 78.501-29m48.999.5c-.336 14.221-7.033 17.885-28.778 19.632-23.734 6.079-36.094 6.519-56.328 1.625 18.706 3.256 38.306-2.397 85.106-21.257z" stroke="#fff"/></svg>