<svg width="76" height="87" viewBox="0 0 76 87" fill="none" xmlns="http://www.w3.org/2000/svg">
<path d="M23.5484 87C7.63976 78.1087 3.45135 69.6928 5.84598 58.1987C7.61381 49.7113 13.4025 42.806 13.9575 34.3349C16.4303 38.7973 17.4635 42.0151 17.7398 46.6782C25.6043 37.1229 30.8014 23.895 31.1091 10C31.1091 10 51.5934 21.9356 52.9375 39.9646C54.7009 36.2485 55.5886 30.3465 53.8252 26.5214C59.1154 30.3467 90.0795 64.3051 49.6311 87C57.2358 72.3162 51.593 52.5033 38.3892 43.3527C39.271 47.2873 37.725 61.9624 31.8835 68.4107C33.5021 57.6361 30.3435 53.0802 30.3435 53.0802C30.3435 53.0802 29.2594 59.1153 25.0533 65.2118C21.2123 70.779 18.551 76.6878 23.5484 87Z" fill="#8B1414"/>
</svg>
