<svg width="78" height="88" viewBox="0 0 78 88" fill="none" xmlns="http://www.w3.org/2000/svg">
<path d="M5.39453 67.6504L5.86203 66.9987L27.917 25.1602L27.9638 24.7174L18.2425 6.45745C18.0646 6.12353 17.7861 5.85403 17.4465 5.68707C17.107 5.52011 16.7235 5.46415 16.3504 5.52709C15.9773 5.59004 15.6335 5.76871 15.3675 6.03782C15.1015 6.30694 14.9269 6.65288 14.8683 7.0267L5.39453 67.6504Z" fill="#FFC24A"/>
<path d="M5.66797 67.1555L6.01997 66.468L27.8467 25.064L18.1502 6.7325C17.9903 6.4137 17.7314 6.1553 17.4123 5.996C17.0932 5.8367 16.7311 5.78508 16.3802 5.84888C16.0293 5.91268 15.7085 6.08846 15.4659 6.34989C15.2233 6.61132 15.0719 6.94432 15.0345 7.299L5.66797 67.1555Z" fill="#C71111"/>
<path d="M35.0489 38.5266L42.2869 31.1016L35.0461 17.2939C34.8868 16.9967 34.6498 16.7483 34.3604 16.5751C34.0711 16.402 33.7402 16.3105 33.403 16.3105C33.0658 16.3105 32.7349 16.402 32.4456 16.5751C32.1562 16.7483 31.9192 16.9967 31.7599 17.2939L27.8906 24.6694V25.2991L35.0489 38.5266Z" fill="#F4BD62"/>
<path d="M34.9223 38.2258L41.9596 31.0208L34.9223 17.6008C34.8072 17.3104 34.6104 17.0594 34.3558 16.8782C34.1012 16.697 33.7996 16.5933 33.4875 16.5797C33.1753 16.566 32.8658 16.6429 32.5963 16.8012C32.3269 16.9595 32.109 17.1923 31.9688 17.4716L28.0803 24.9763L27.9648 25.3586L34.9223 38.2258Z" fill="#D52222"/>
<path d="M5.39844 67.6527L5.61019 67.4382L6.37744 67.1274L34.5924 39.0169L34.9499 38.0434L27.9127 24.6289L5.39844 67.6527Z" fill="#B61212"/>
<path d="M35.9525 81.8289L61.4945 67.5866L54.196 22.6764C54.1437 22.3598 54.0052 22.0637 53.7956 21.8207C53.5861 21.5777 53.3136 21.3971 53.0082 21.2988C52.7027 21.2005 52.3761 21.1883 52.0641 21.2634C51.7522 21.3386 51.4669 21.4983 51.2398 21.7249L5.39453 67.6499L30.7853 81.8261C31.5747 82.2666 32.4636 82.4979 33.3675 82.4979C34.2715 82.4979 35.1604 82.2666 35.9498 81.8261" fill="#FF7373"/>
<path d="M61.2592 67.4689L54.0212 22.8968C54.0084 22.594 53.9061 22.3018 53.7272 22.0572C53.5483 21.8126 53.3008 21.6265 53.0161 21.5226C52.7314 21.4186 52.4222 21.4015 52.1278 21.4733C51.8333 21.5452 51.5668 21.7027 51.362 21.9261L5.66797 67.5651L30.7782 81.5901C31.5613 82.027 32.4431 82.2563 33.3398 82.2563C34.2366 82.2563 35.1184 82.027 35.9015 81.5901L61.2592 67.4689Z" fill="#8B1414"/>
<path d="M35.9525 81.3994C35.1632 81.8399 34.2742 82.0711 33.3703 82.0711C32.4663 82.0711 31.5774 81.8399 30.788 81.3994L5.60353 67.4349L5.39453 67.6494L30.7853 81.8257C31.5747 82.2662 32.4636 82.4974 33.3675 82.4974C34.2715 82.4974 35.1604 82.2662 35.9498 81.8257L61.4945 67.5862L61.4313 67.2012L35.9525 81.3994Z" fill="#600505"/>
</svg>
