<svg width="78" height="84" viewBox="0 0 78 84" fill="none" xmlns="http://www.w3.org/2000/svg">
<g clip-path="url(#clip0_37_508)">
<path d="M28.2235 8.23529C28.2235 7.34314 27.8772 6.57108 27.1845 5.91912C26.4918 5.26716 25.6715 4.94118 24.7236 4.94118C23.7757 4.94118 22.9554 5.26716 22.2627 5.91912C21.57 6.57108 21.2236 7.34314 21.2236 8.23529C21.2236 9.12745 21.57 9.89951 22.2627 10.5515C22.9554 11.2034 23.7757 11.5294 24.7236 11.5294C25.6715 11.5294 26.4918 11.2034 27.1845 10.5515C27.8772 9.89951 28.2235 9.12745 28.2235 8.23529ZM77.2227 6.58824V23.0588C77.2227 23.6078 77.0039 24.0368 76.5664 24.3456C76.2748 24.5858 75.9102 24.7059 75.4727 24.7059C75.3269 24.7059 75.1992 24.6887 75.0899 24.6544L50.5903 19.7132C50.1893 19.6446 49.8611 19.4559 49.6059 19.1471C49.3507 18.8382 49.2231 18.4951 49.2231 18.1176H35.2234V23.3676C39.2702 24.1569 42.6152 26.0613 45.2584 29.0809C47.9016 32.1005 49.2231 35.5833 49.2231 39.5294V80.7059C49.2231 81.598 48.8768 82.3701 48.1841 83.0221C47.4914 83.674 46.6711 84 45.7232 84H17.7237C16.7758 84 15.9555 83.674 15.2628 83.0221C14.5701 82.3701 14.2237 81.598 14.2237 80.7059V39.5294C14.2237 35.8922 15.363 32.6238 17.6417 29.7243C19.9203 26.8248 22.8642 24.8603 26.4735 23.8309V18.1176H24.7236C22.5726 18.1176 20.4762 18.5208 18.4346 19.3272C16.393 20.1336 14.725 21.0429 13.4308 22.0551C12.1365 23.0674 10.9334 24.2083 9.82148 25.4779C8.70952 26.7475 7.97125 27.6654 7.60667 28.2316C7.2421 28.7978 6.98689 29.2181 6.84106 29.4926C6.22128 30.6936 5.18224 31.2941 3.72393 31.2941C3.14061 31.2941 2.61197 31.174 2.13802 30.9338C1.29949 30.5221 0.725283 29.8873 0.415393 29.0294C0.105503 28.1716 0.169304 27.3309 0.606796 26.5074C0.789084 26.1642 1.0534 25.7181 1.39975 25.1691C1.7461 24.6201 2.42968 23.7022 3.4505 22.4154C4.47131 21.1287 5.57416 19.9277 6.75903 18.8125C7.94391 17.6973 9.49336 16.5478 11.4074 15.364C13.3214 14.1801 15.2992 13.2794 17.3409 12.6618C16.4294 11.2206 15.9737 9.7451 15.9737 8.23529C15.9737 5.97059 16.8305 4.03186 18.544 2.41912C20.2575 0.806373 22.3174 0 24.7236 0C27.1298 0 29.1896 0.806373 30.9031 2.41912C32.6167 4.03186 33.4734 5.97059 33.4734 8.23529C33.4734 9.36765 33.2182 10.4657 32.7078 11.5294H49.2231C49.2231 11.152 49.3507 10.8088 49.6059 10.5C49.8611 10.1912 50.1893 10.0025 50.5903 9.93382L75.0899 4.99265C75.1992 4.95833 75.3269 4.94118 75.4727 4.94118C75.9102 4.94118 76.2748 5.06127 76.5664 5.30147C77.0039 5.61029 77.2227 6.03922 77.2227 6.58824Z" fill="#8B1414"/>
</g>
<defs>
<clipPath id="clip0_37_508">
<rect width="77" height="84" fill="white" transform="translate(0.222656)"/>
</clipPath>
</defs>
</svg>
