<svg width="89" height="88" viewBox="0 0 89 88" fill="none" xmlns="http://www.w3.org/2000/svg">
<path d="M25.8906 77C22.8351 77 20.2378 75.9306 18.099 73.7917C15.9601 71.6528 14.8906 69.0556 14.8906 66H11.224C9.20729 66 7.48151 65.2826 6.04663 63.8477C4.60929 62.4103 3.89062 60.6833 3.89062 58.6667V40.3333H44.224V25.6667C44.224 23.65 44.9426 21.9242 46.38 20.4893C47.8148 19.052 49.5406 18.3333 51.5573 18.3333H58.8906V14.6667C58.8906 13.6278 59.2426 12.7563 59.9466 12.0523C60.6482 11.3508 61.5184 11 62.5573 11H66.224C67.2628 11 68.1331 11.3508 68.8346 12.0523C69.5386 12.7563 69.8906 13.6278 69.8906 14.6667V18.3333H71.9073C73.4962 18.3333 74.9323 18.7917 76.2156 19.7083C77.499 20.625 78.3851 21.8472 78.874 23.375L84.1906 39.1417C84.3128 39.5083 84.4045 39.8897 84.4656 40.2857C84.5267 40.6841 84.5573 41.0972 84.5573 41.525V66H73.5573C73.5573 69.0556 72.4878 71.6528 70.349 73.7917C68.2101 75.9306 65.6128 77 62.5573 77C59.5017 77 56.9045 75.9306 54.7656 73.7917C52.6267 71.6528 51.5573 69.0556 51.5573 66H36.8906C36.8906 69.0556 35.8212 71.6528 33.6823 73.7917C31.5434 75.9306 28.9462 77 25.8906 77ZM25.8906 69.6667C26.9295 69.6667 27.801 69.3147 28.505 68.6107C29.2065 67.9091 29.5573 67.0389 29.5573 66C29.5573 64.9611 29.2065 64.0909 28.505 63.3893C27.801 62.6853 26.9295 62.3333 25.8906 62.3333C24.8517 62.3333 23.9803 62.6853 23.2763 63.3893C22.5747 64.0909 22.224 64.9611 22.224 66C22.224 67.0389 22.5747 67.9091 23.2763 68.6107C23.9803 69.3147 24.8517 69.6667 25.8906 69.6667ZM62.5573 69.6667C63.5962 69.6667 64.4664 69.3147 65.168 68.6107C65.872 67.9091 66.224 67.0389 66.224 66C66.224 64.9611 65.872 64.0909 65.168 63.3893C64.4664 62.6853 63.5962 62.3333 62.5573 62.3333C61.5184 62.3333 60.6482 62.6853 59.9466 63.3893C59.2426 64.0909 58.8906 64.9611 58.8906 66C58.8906 67.0389 59.2426 67.9091 59.9466 68.6107C60.6482 69.3147 61.5184 69.6667 62.5573 69.6667ZM51.5573 40.3333H76.8573L71.9073 25.6667H51.5573V40.3333ZM3.89062 36.6667V31.1667H7.55729V23.8333H3.89062V18.3333H40.5573V23.8333H36.8906V31.1667H40.5573V36.6667H3.89062ZM13.0573 31.1667H19.474V23.8333H13.0573V31.1667ZM24.974 31.1667H31.3906V23.8333H24.974V31.1667Z" fill="#8B1414"/>
</svg>
