<svg width="78" height="88" fill="none" xmlns="http://www.w3.org/2000/svg"><path d="M5.395 67.65l.467-.65 22.055-41.84.047-.443-9.721-18.26a1.803 1.803 0 00-3.375.57L5.395 67.65z" fill="#FFC24A"/><path d="M5.668 67.156l.352-.688 21.827-41.404L18.15 6.733a1.65 1.65 0 00-3.115.566L5.667 67.156z" fill="#C71111"/><path d="M35.049 38.527l7.238-7.425-7.24-13.808a1.864 1.864 0 00-3.287 0l-3.87 7.375v.63l7.159 13.228z" fill="#F4BD62"/><path d="M34.922 38.226l7.038-7.205-7.038-13.42a1.62 1.62 0 00-2.953-.13l-3.889 7.505-.115.383 6.957 12.867z" fill="#D52222"/><path d="M5.398 67.653l.212-.215.767-.31 28.215-28.111.358-.974-7.037-13.414L5.398 67.653z" fill="#B61212"/><path d="M35.953 81.829l25.541-14.242-7.298-44.91a1.746 1.746 0 00-2.956-.952L5.395 67.65l25.39 14.176a5.3 5.3 0 005.165 0" fill="#FF7373"/><path d="M61.26 67.469l-7.24-44.572a1.532 1.532 0 00-2.659-.97L5.668 67.564l25.11 14.025a5.258 5.258 0 005.123 0L61.26 67.47z" fill="#8B1414"/><path d="M35.953 81.4a5.299 5.299 0 01-5.165 0L5.604 67.434l-.21.214 25.391 14.177a5.3 5.3 0 005.165 0l25.544-14.24-.063-.385-25.478 14.2z" fill="#600505"/></svg>