<svg width="78" height="84" fill="none" xmlns="http://www.w3.org/2000/svg"><g clip-path="url(#clip0_37_508)"><path d="M28.224 8.235c0-.892-.347-1.664-1.04-2.316a3.47 3.47 0 00-2.46-.978 3.47 3.47 0 00-2.461.978c-.693.652-1.04 1.424-1.04 2.316 0 .892.347 1.665 1.04 2.317a3.47 3.47 0 002.46.977 3.47 3.47 0 002.462-.977c.692-.652 1.039-1.425 1.039-2.317zm48.999-1.647v16.47c0 .55-.22.979-.657 1.288-.291.24-.656.36-1.093.36-.146 0-.274-.017-.383-.052l-24.5-4.94a1.583 1.583 0 01-.984-.567 1.577 1.577 0 01-.383-1.03h-14v5.25c4.047.79 7.392 2.694 10.035 5.714 2.644 3.02 3.965 6.502 3.965 10.448v41.177c0 .892-.346 1.664-1.039 2.316a3.47 3.47 0 01-2.46.978h-28a3.47 3.47 0 01-2.461-.978c-.693-.652-1.04-1.424-1.04-2.316V39.529c0-3.637 1.14-6.905 3.419-9.805 2.278-2.9 5.222-4.864 8.832-5.893v-5.713h-1.75c-2.151 0-4.248.403-6.29 1.21-2.041.806-3.709 1.715-5.003 2.727a26.475 26.475 0 00-3.61 3.423c-1.111 1.27-1.85 2.187-2.214 2.754-.365.566-.62.986-.766 1.26-.62 1.202-1.659 1.802-3.117 1.802-.583 0-1.112-.12-1.586-.36-.839-.412-1.413-1.047-1.723-1.905-.31-.857-.246-1.698.192-2.522.182-.343.446-.789.793-1.338.346-.549 1.03-1.467 2.05-2.754a33.72 33.72 0 013.309-3.602c1.185-1.116 2.734-2.265 4.648-3.449a25.035 25.035 0 015.934-2.702c-.912-1.441-1.367-2.917-1.367-4.427 0-2.264.857-4.203 2.57-5.816C20.257.806 22.317 0 24.724 0c2.406 0 4.466.806 6.18 2.42 1.713 1.612 2.57 3.55 2.57 5.815 0 1.133-.256 2.23-.766 3.294h16.515c0-.377.128-.72.383-1.029.255-.309.583-.498.984-.566l24.5-4.941c.11-.035.237-.052.383-.052.437 0 .802.12 1.093.36.438.31.657.738.657 1.287z" fill="#8B1414"/></g><defs><clipPath id="clip0_37_508"><path fill="#fff" transform="translate(.223)" d="M0 0h77v84H0z"/></clipPath></defs></svg>