<svg width="76" height="87" fill="none" xmlns="http://www.w3.org/2000/svg"><path d="M23.548 87C7.64 78.109 3.451 69.693 5.846 58.199c1.768-8.488 7.556-15.393 8.111-23.864 2.473 4.462 3.506 7.68 3.783 12.343C25.604 37.123 30.8 23.895 31.11 10c0 0 20.483 11.936 21.828 29.965 1.763-3.717 2.65-9.619.887-13.444C59.115 30.347 90.08 64.305 49.631 87c7.605-14.684 1.962-34.497-11.242-43.647.882 3.934-.664 18.61-6.506 25.058 1.62-10.775-1.54-15.33-1.54-15.33s-1.084 6.034-5.29 12.13C21.213 70.78 18.551 76.689 23.548 87z" fill="#8B1414"/></svg>