<svg width="89" height="88" fill="none" xmlns="http://www.w3.org/2000/svg"><path d="M25.89 77c-3.055 0-5.652-1.07-7.791-3.208-2.139-2.14-3.208-4.736-3.208-7.792h-3.667c-2.017 0-3.742-.717-5.177-2.152-1.438-1.438-2.156-3.165-2.156-5.181V40.333h40.333V25.667c0-2.017.719-3.743 2.156-5.178 1.435-1.437 3.16-2.156 5.177-2.156h7.334v-3.666c0-1.04.352-1.91 1.056-2.615.701-.701 1.571-1.052 2.61-1.052h3.667c1.039 0 1.91.35 2.61 1.052.705.704 1.057 1.576 1.057 2.615v3.666h2.016c1.59 0 3.025.459 4.309 1.375 1.283.917 2.17 2.14 2.658 3.667l5.317 15.767c.122.366.213.748.275 1.144.06.398.091.811.091 1.239V66h-11c0 3.056-1.07 5.653-3.208 7.792C68.21 75.93 65.613 77 62.557 77c-3.055 0-5.653-1.07-7.791-3.208-2.14-2.14-3.209-4.736-3.209-7.792H36.891c0 3.056-1.07 5.653-3.209 7.792C31.543 75.93 28.946 77 25.891 77zm0-7.333c1.04 0 1.911-.352 2.615-1.056.701-.702 1.052-1.572 1.052-2.611 0-1.039-.35-1.91-1.052-2.61-.704-.705-1.575-1.057-2.614-1.057-1.04 0-1.91.352-2.615 1.056-.701.702-1.052 1.572-1.052 2.611 0 1.039.35 1.91 1.052 2.61.704.705 1.576 1.057 2.615 1.057zm36.667 0c1.04 0 1.91-.352 2.611-1.056.704-.702 1.056-1.572 1.056-2.611 0-1.039-.352-1.91-1.056-2.61-.702-.705-1.572-1.057-2.61-1.057-1.04 0-1.91.352-2.611 1.056-.704.702-1.056 1.572-1.056 2.611 0 1.039.352 1.91 1.056 2.61.701.705 1.571 1.057 2.61 1.057zm-11-29.334h25.3l-4.95-14.666h-20.35v14.666zM3.891 36.667v-5.5h3.666v-7.334H3.891v-5.5h36.666v5.5h-3.666v7.334h3.666v5.5H3.891zm9.166-5.5h6.417v-7.334h-6.417v7.334zm11.917 0h6.417v-7.334h-6.417v7.334z" fill="#8B1414"/></svg>