<svg width="81" height="73" viewBox="0 0 81 73" fill="none" xmlns="http://www.w3.org/2000/svg">
<path fill-rule="evenodd" clip-rule="evenodd" d="M16.875 8.78953V59.8684C16.875 61.2231 17.4084 62.5224 18.3578 63.4803C19.3072 64.4382 20.5948 64.9763 21.9375 64.9763H43.875V58.9575C42.5882 58.2079 41.5824 57.0508 41.0138 55.6657C40.4452 54.2806 40.3454 52.7449 40.73 51.2968C41.1146 49.8486 41.962 48.569 43.1409 47.6563C44.3197 46.7436 45.7641 46.2489 47.25 46.2489C48.7359 46.2489 50.1803 46.7436 51.3591 47.6563C52.538 48.569 53.3854 49.8486 53.77 51.2968C54.1546 52.7449 54.0548 54.2806 53.4862 55.6657C52.9176 57.0508 51.9118 58.2079 50.625 58.9575V64.9763H59.0625C60.4052 64.9763 61.6928 64.4382 62.6422 63.4803C63.5916 62.5224 64.125 61.2231 64.125 59.8684V8.78953C64.125 7.43483 63.5916 6.13562 62.6422 5.17771C61.6928 4.21979 60.4052 3.68164 59.0625 3.68164H21.9375C20.5948 3.68164 19.3072 4.21979 18.3578 5.17771C17.4084 6.13562 16.875 7.43483 16.875 8.78953ZM47.25 56.4632C48.1451 56.4632 49.0035 56.1044 49.6365 55.4658C50.2694 54.8272 50.625 53.9611 50.625 53.0579C50.625 52.1548 50.2694 51.2887 49.6365 50.65C49.0035 50.0114 48.1451 49.6527 47.25 49.6527C46.3549 49.6527 45.4965 50.0114 44.8635 50.65C44.2306 51.2887 43.875 52.1548 43.875 53.0579C43.875 53.9611 44.2306 54.8272 44.8635 55.4658C45.4965 56.1044 46.3549 56.4632 47.25 56.4632ZM30.375 15.6001C30.375 15.1485 30.5528 14.7154 30.8693 14.3961C31.1857 14.0768 31.6149 13.8974 32.0625 13.8974H48.9375C49.3851 13.8974 49.8143 14.0768 50.1307 14.3961C50.4472 14.7154 50.625 15.1485 50.625 15.6001C50.625 16.0516 50.4472 16.4847 50.1307 16.804C49.8143 17.1233 49.3851 17.3027 48.9375 17.3027H32.0625C31.6149 17.3027 31.1857 17.1233 30.8693 16.804C30.5528 16.4847 30.375 16.0516 30.375 15.6001ZM25.3125 24.1132C24.8649 24.1132 24.4357 24.2926 24.1193 24.6119C23.8028 24.9312 23.625 25.3643 23.625 25.8158C23.625 26.2674 23.8028 26.7005 24.1193 27.0198C24.4357 27.3391 24.8649 27.5185 25.3125 27.5185H55.6875C56.1351 27.5185 56.5643 27.3391 56.8807 27.0198C57.1972 26.7005 57.375 26.2674 57.375 25.8158C57.375 25.3643 57.1972 24.9312 56.8807 24.6119C56.5643 24.2926 56.1351 24.1132 55.6875 24.1132H25.3125ZM23.625 32.6264C23.625 32.1748 23.8028 31.7417 24.1193 31.4224C24.4357 31.1031 24.8649 30.9237 25.3125 30.9237H55.6875C56.1351 30.9237 56.5643 31.1031 56.8807 31.4224C57.1972 31.7417 57.375 32.1748 57.375 32.6264C57.375 33.0779 57.1972 33.511 56.8807 33.8303C56.5643 34.1496 56.1351 34.329 55.6875 34.329H25.3125C24.8649 34.329 24.4357 34.1496 24.1193 33.8303C23.8028 33.511 23.625 33.0779 23.625 32.6264ZM25.3125 37.7342C24.8649 37.7342 24.4357 37.9136 24.1193 38.2329C23.8028 38.5522 23.625 38.9853 23.625 39.4369C23.625 39.8884 23.8028 40.3215 24.1193 40.6408C24.4357 40.9601 24.8649 41.1395 25.3125 41.1395H55.6875C56.1351 41.1395 56.5643 40.9601 56.8807 40.6408C57.1972 40.3215 57.375 39.8884 57.375 39.4369C57.375 38.9853 57.1972 38.5522 56.8807 38.2329C56.5643 37.9136 56.1351 37.7342 55.6875 37.7342H25.3125Z" fill="#8B1414"/>
<path d="M43.875 71.7871V64.9766H50.625V71.7871L47.25 69.2331L43.875 71.7871Z" fill="#8B1414"/>
</svg>
