<svg width="71" height="74" viewBox="0 0 71 74" fill="none" xmlns="http://www.w3.org/2000/svg">
<path fill-rule="evenodd" clip-rule="evenodd" d="M4.73438 10.1C4.73438 8.21696 5.48241 6.41105 6.81392 5.07954C8.14543 3.74803 9.95134 3 11.8344 3L50.6808 3L66.2677 18.5869V66.9C66.2677 68.783 65.5197 70.589 64.1882 71.9205C62.8567 73.252 61.0507 74 59.1677 74H11.8344C9.95134 74 8.14543 73.252 6.81392 71.9205C5.48241 70.589 4.73438 68.783 4.73438 66.9V10.1ZM33.1344 21.9333H18.9344V26.6667H33.1344V21.9333ZM52.0677 36.1333H18.9344V40.8667H52.0677V36.1333ZM29.8447 54.6312C27.9324 55.1424 26.4367 56.605 25.916 58.1812L21.4194 56.6855C22.4749 53.5283 25.2392 50.9676 28.614 50.0588C31.9605 49.1595 35.7803 49.9168 39.0842 52.9509C40.0429 52.6696 41.0307 52.4997 42.0283 52.4444C44.5843 52.3071 46.8705 52.9509 48.8348 53.7697C50.2785 54.3709 51.6748 55.1282 52.8582 55.7672C53.2274 55.9755 53.5824 56.1648 53.909 56.3352C55.4378 57.1399 56.2756 57.4333 56.801 57.4333V62.1667C54.955 62.1667 53.1374 61.2768 51.708 60.5289C51.2772 60.3016 50.848 60.0713 50.4205 59.8379C49.3149 59.2124 48.1774 58.6452 47.0125 58.1386C45.4316 57.4759 43.8743 57.0878 42.2839 57.173C42.0464 57.1845 41.8095 57.2066 41.5739 57.2393L41.5786 57.3055C41.7064 58.8391 41.0722 60.1029 40.2533 61.0117C38.7481 62.6873 36.2915 63.5677 34.4455 63.8991C33.489 64.0909 32.5082 64.1308 31.5392 64.0174C30.9897 63.9471 30.4591 63.7702 29.9772 63.4967C29.6026 63.2811 29.2799 62.9858 29.032 62.6316C28.7842 62.2774 28.6173 61.8731 28.543 61.4472C28.4266 60.6508 28.6142 59.8397 29.0684 59.1752C29.4122 58.6703 29.8303 58.2203 30.3086 57.8404C31.2079 57.0973 32.5096 56.2926 34.2562 55.4122L34.384 55.3175C33.7128 54.9008 32.9638 54.625 32.1826 54.5071C31.4014 54.3891 30.6043 54.4313 29.84 54.6312H29.8447Z" fill="#8B1414"/>
</svg>
