<svg width="69" height="73" viewBox="0 0 69 73" fill="none" xmlns="http://www.w3.org/2000/svg">
<path d="M66 59.1111C66 60.9382 65.2742 62.6904 63.9823 63.9823C62.6904 65.2742 60.9382 66 59.1111 66H10.8889C9.06184 66 7.30963 65.2742 6.01771 63.9823C4.72579 62.6904 4 60.9382 4 59.1111V10.8889C4 9.06184 4.72579 7.30963 6.01771 6.01771C7.30963 4.72579 9.06184 4 10.8889 4H59.1111C60.9382 4 62.6904 4.72579 63.9823 6.01771C65.2742 7.30963 66 9.06184 66 10.8889V59.1111Z" fill="#8B1414"/>
<path d="M54.4263 14.9563C53.4682 14.3356 52.303 14.1204 51.1864 14.3581C50.0698 14.5957 49.0932 15.2668 48.4709 16.2239L29.7228 45.121L21.0617 37.1127C20.6482 36.7199 20.1608 36.4133 19.6278 36.2104C19.0948 36.0076 18.5268 35.9127 17.9568 35.9312C17.3868 35.9497 16.8262 36.0813 16.3075 36.3183C15.7888 36.5552 15.3223 36.8929 14.9351 37.3116C14.548 37.7304 14.2479 38.2219 14.0523 38.7575C13.8566 39.2932 13.7694 39.8624 13.7956 40.4321C13.8217 41.0018 13.9608 41.5606 14.2047 42.0761C14.4487 42.5916 14.7926 43.0535 15.2165 43.435L27.632 54.9153C28.4587 55.6817 29.5092 56.0606 30.5529 56.0606C31.7119 56.0606 33.1948 55.5749 34.1678 54.099C34.7396 53.2275 55.6956 20.9117 55.6956 20.9117C56.0033 20.4374 56.2146 19.907 56.3173 19.351C56.4201 18.795 56.4123 18.2241 56.2944 17.6711C56.1766 17.1181 55.9509 16.5937 55.6304 16.1279C55.3099 15.6621 54.9007 15.264 54.4263 14.9563Z" fill="white"/>
</svg>
