<svg width="84" height="73" viewBox="0 0 84 73" fill="none" xmlns="http://www.w3.org/2000/svg">
<path d="M36.3515 65.8007C36.3515 65.8007 31.4512 65.8007 31.4512 60.8315C31.4512 55.8623 36.3515 40.9546 55.9527 40.9546C75.554 40.9546 80.4543 55.8623 80.4543 60.8315C80.4543 65.8007 75.554 65.8007 75.554 65.8007H36.3515ZM55.9527 35.9853C59.8517 35.9853 63.5909 34.4147 66.3479 31.619C69.1048 28.8232 70.6537 25.0314 70.6537 21.0776C70.6537 17.1239 69.1048 13.332 66.3479 10.5363C63.5909 7.74055 59.8517 6.16992 55.9527 6.16992C52.0538 6.16992 48.3146 7.74055 45.5576 10.5363C42.8006 13.332 41.2518 17.1239 41.2518 21.0776C41.2518 25.0314 42.8006 28.8232 45.5576 31.619C48.3146 34.4147 52.0538 35.9853 55.9527 35.9853Z" fill="#8B1414"/>
<path fill-rule="evenodd" clip-rule="evenodd" d="M27.6088 65.8034C26.8824 64.2521 26.5201 62.5512 26.5504 60.8341C26.5504 54.1008 29.8826 47.1687 36.0374 42.3486C32.9653 41.3887 29.7647 40.9193 26.5504 40.9572C6.94914 40.9572 2.04883 55.8649 2.04883 60.8341C2.04883 65.8034 6.94914 65.8034 6.94914 65.8034H27.6088Z" fill="#8B1414"/>
<path d="M24.1004 35.9868C27.3495 35.9868 30.4655 34.6779 32.763 32.3482C35.0605 30.0184 36.3512 26.8585 36.3512 23.5637C36.3512 20.2689 35.0605 17.109 32.763 14.7793C30.4655 12.4495 27.3495 11.1406 24.1004 11.1406C20.8513 11.1406 17.7352 12.4495 15.4378 14.7793C13.1403 17.109 11.8496 20.2689 11.8496 23.5637C11.8496 26.8585 13.1403 30.0184 15.4378 32.3482C17.7352 34.6779 20.8513 35.9868 24.1004 35.9868Z" fill="#8B1414"/>
</svg>
