<svg width="73" height="73" viewBox="0 0 73 73" fill="none" xmlns="http://www.w3.org/2000/svg">
<g clip-path="url(#clip0_111_316)">
<path d="M62.8613 16.2227H44.6113V66.9171H66.9169V20.2782C66.9169 19.2026 66.4896 18.1711 65.729 17.4105C64.9685 16.6499 63.9369 16.2227 62.8613 16.2227ZM52.7224 50.6949H48.6669V46.6393H52.7224V50.6949ZM52.7224 40.556H48.6669V36.5004H52.7224V40.556ZM52.7224 30.4171H48.6669V26.3615H52.7224V30.4171ZM60.8335 50.6949H56.778V46.6393H60.8335V50.6949ZM60.8335 40.556H56.778V36.5004H60.8335V40.556ZM60.8335 30.4171H56.778V26.3615H60.8335V30.4171Z" fill="#8B1414"/>
<path d="M36.2569 6.08398H12.4102C11.2701 6.08398 10.1766 6.5369 9.37044 7.3431C8.56425 8.1493 8.11133 9.24274 8.11133 10.3829V66.9173H18.2502V60.834H30.4169V66.9173H40.5558V10.3829C40.5558 9.24274 40.1029 8.1493 39.2967 7.3431C38.4905 6.5369 37.397 6.08398 36.2569 6.08398ZM18.2502 50.6951H14.1947V46.6395H18.2502V50.6951ZM18.2502 40.5562H14.1947V36.5006H18.2502V40.5562ZM18.2502 30.4173H14.1947V26.3618H18.2502V30.4173ZM18.2502 20.2784H14.1947V16.2229H18.2502V20.2784ZM26.3613 50.6951H22.3058V46.6395H26.3613V50.6951ZM26.3613 40.5562H22.3058V36.5006H26.3613V40.5562ZM26.3613 30.4173H22.3058V26.3618H26.3613V30.4173ZM26.3613 20.2784H22.3058V16.2229H26.3613V20.2784ZM34.4724 50.6951H30.4169V46.6395H34.4724V50.6951ZM34.4724 40.5562H30.4169V36.5006H34.4724V40.5562ZM34.4724 30.4173H30.4169V26.3618H34.4724V30.4173ZM34.4724 20.2784H30.4169V16.2229H34.4724V20.2784Z" fill="#8B1414"/>
</g>
<defs>
<clipPath id="clip0_111_316">
<rect width="73" height="73" fill="white"/>
</clipPath>
</defs>
</svg>
