<svg width="73" height="73" viewBox="0 0 73 73" fill="none" xmlns="http://www.w3.org/2000/svg">
<path d="M69.9291 28.1041L69.0531 27.2281C69.6198 26.0506 69.8141 24.7282 69.6101 23.4374C69.4061 22.1466 68.8136 20.9486 67.9114 20.0032C67.2959 19.3906 66.5568 18.9164 65.7435 18.6122C64.9301 18.3079 64.0612 18.1807 63.1948 18.239C62.3806 18.2866 61.581 18.4767 60.8325 18.8007V4.05469H4.05469V68.9436H60.8325V36.1341L67.0983 29.8683L67.6336 30.4016C67.7036 30.4715 67.7591 30.5544 67.797 30.6458C67.8348 30.7371 67.8543 30.835 67.8543 30.9339C67.8543 31.0328 67.8348 31.1307 67.797 31.222C67.7591 31.3133 67.7036 31.3963 67.6336 31.4662L62.8623 36.2396C62.5579 36.5437 62.3868 36.9563 62.3866 37.3866C62.3864 37.8169 62.5571 38.2296 62.8613 38.534C63.1654 38.8384 63.578 39.0095 64.0083 39.0097C64.4385 39.0099 64.8513 38.8391 65.1557 38.535L69.9291 33.7616C70.6787 33.0111 71.0998 31.9937 71.0998 30.9329C71.0998 29.8721 70.6787 28.8547 69.9291 28.1041ZM16.2214 16.6269H48.6699V19.8714H16.2214V16.6269ZM16.2214 24.738H48.6699V27.9825H16.2214V24.738ZM16.2214 32.8491H37.513V36.0936H16.2214V32.8491ZM46.2142 60.6216H30.3915C28.5624 60.6216 26.851 60.4472 25.9425 58.9507C25.0118 57.4197 25.9364 55.6414 26.6117 54.3395C26.7313 54.1104 26.4657 53.8265 26.1615 54.1408C25.2693 55.0574 23.8499 56.708 22.7082 58.0341C21.5017 59.4374 21.0231 59.9869 20.7676 60.218C20.4973 60.5321 20.1302 60.7471 19.7241 60.8294C19.318 60.9116 18.8961 60.8564 18.5249 60.6723C18.1917 60.4798 17.9306 60.1835 17.7815 59.8287C17.6325 59.4739 17.6037 59.0801 17.6996 58.7074C17.7848 58.2004 19.2326 52.5591 20.5446 47.4877C18.8007 50.5841 13.2649 59.8571 13.0053 60.2931C12.8122 60.6166 12.4986 60.8501 12.1333 60.9423C11.768 61.0345 11.3811 60.9779 11.0576 60.7848C10.7341 60.5917 10.5006 60.2781 10.4084 59.9128C10.3162 59.5476 10.3728 59.1606 10.5659 58.8371C10.6369 58.7215 17.5719 47.1004 18.4458 45.4132C18.7307 44.7389 19.261 44.1978 19.9295 43.8993C20.598 43.6008 21.3548 43.5672 22.0472 43.8052C22.6721 44.0592 23.1775 44.5406 23.4616 45.1525C23.7457 45.7643 23.7873 46.4611 23.5781 47.1024C22.8481 49.9169 22.1039 52.8045 21.5301 55.0513C22.4568 53.9806 23.426 52.8815 24.1256 52.1617C24.664 51.5144 25.3997 51.0614 26.2201 50.8721C27.0404 50.6828 27.9002 50.7675 28.6679 51.1133C29.1448 51.3562 29.5269 51.7516 29.7532 52.2366C29.9796 52.7216 30.0372 53.2684 29.917 53.79C29.7233 54.436 29.4594 55.0589 29.1302 55.6474C28.5888 56.7729 28.8463 57.7807 30.3915 57.7807H46.2142C46.5907 57.7807 46.9517 57.9302 47.2179 58.1964C47.4841 58.4626 47.6337 58.8236 47.6337 59.2001C47.6337 59.5766 47.4841 59.9376 47.2179 60.2038C46.9517 60.47 46.5907 60.6195 46.2142 60.6195V60.6216ZM41.9964 50.3813L36.7161 51.7744C36.6393 51.7962 36.558 51.7967 36.4809 51.776C36.4038 51.7553 36.3337 51.7141 36.2781 51.6568C36.2199 51.6018 36.1779 51.5318 36.1568 51.4546C36.1357 51.3773 36.1362 51.2957 36.1585 51.2188L37.5049 45.9486L50.868 32.5855L55.3291 37.0466L41.9964 50.3813ZM65.2469 27.1288L57.6225 34.7532L53.1614 30.2921L60.7858 22.6677C61.4677 21.9666 62.3852 21.5432 63.3611 21.4794L63.5436 21.4733C63.9265 21.4665 64.307 21.5359 64.6628 21.6776C65.0186 21.8193 65.3426 22.0304 65.616 22.2986C66.2021 22.9904 66.492 23.8853 66.4229 24.7894C66.3538 25.6935 65.9313 26.534 65.2469 27.1288Z" fill="#8B1414"/>
</svg>
