<svg width="33" height="32" viewBox="0 0 33 32" fill="none" xmlns="http://www.w3.org/2000/svg">
<path d="M2.00016 12.4814C1.99616 12.7178 2.06671 12.9499 2.20244 13.1468C2.33817 13.3437 2.53268 13.4961 2.76017 13.5838L14.3609 18.0646L19.0019 29.2662C19.0915 29.4829 19.2464 29.6686 19.4465 29.7994C19.6466 29.9302 19.8827 30.0001 20.1244 30H20.1437C20.3884 29.9963 20.6262 29.9209 20.8256 29.7838C21.0249 29.6467 21.1765 29.4545 21.2602 29.2324L30.9264 3.56746C31.0056 3.35867 31.0212 3.1324 30.9716 2.91529C30.922 2.69818 30.8092 2.49928 30.6464 2.34201C30.4837 2.18474 30.2777 2.07565 30.0529 2.02758C29.8281 1.97952 29.5937 1.99449 29.3774 2.07073L2.79521 11.4034C2.56511 11.4844 2.3659 11.631 2.22394 11.8236C2.08197 12.0163 2.00394 12.2461 2.00016 12.4825V12.4814Z" fill="#8B1414"/>
</svg>
