<svg width="35" height="35" viewBox="0 0 35 35" fill="none" xmlns="http://www.w3.org/2000/svg">
<path d="M32.0846 12.554V24.4277C32.0847 25.6384 31.6215 26.8031 30.7901 27.6831C29.9587 28.563 28.8221 29.0915 27.6134 29.16L27.3451 29.1673H7.65755C6.44693 29.1674 5.28218 28.7042 4.40222 27.8728C3.52225 27.0414 2.9938 25.9047 2.92526 24.6961L2.91797 24.4277V12.554L16.9938 19.9273C17.1504 20.0093 17.3245 20.0522 17.5013 20.0522C17.6781 20.0522 17.8522 20.0093 18.0088 19.9273L32.0846 12.554ZM7.65755 5.83398H27.3451C28.5199 5.83384 29.6528 6.27002 30.5243 7.05792C31.3957 7.84581 31.9435 8.92927 32.0613 10.0982L17.5013 17.7252L2.9413 10.0982C3.05436 8.97569 3.56408 7.93036 4.37885 7.15008C5.19362 6.36979 6.26 5.90572 7.3863 5.84128L7.65755 5.83398H27.3451H7.65755Z" fill="#8B1414"/>
</svg>
