<svg width="21" height="20" viewBox="0 0 21 20" fill="none" xmlns="http://www.w3.org/2000/svg">
<path d="M20.6854 9.32022L9.90617 0.10955C9.82343 0.0393257 9.71786 0 9.60659 0H7.08154C6.87041 0 6.7734 0.258427 6.93318 0.393258L16.9249 8.93258H0.228253C0.102714 8.93258 0 9.03371 0 9.1573V10.8427C0 10.9663 0.102714 11.0674 0.228253 11.0674H16.9221L6.93032 19.6067C6.77055 19.7444 6.86756 20 7.07869 20H9.68933C9.74354 20 9.79775 19.9803 9.83769 19.9438L20.6854 10.6798C20.7842 10.5952 20.8634 10.4908 20.9176 10.3735C20.9719 10.2562 21 10.1289 21 10C21 9.87113 20.9719 9.74376 20.9176 9.6265C20.8634 9.50923 20.7842 9.40479 20.6854 9.32022Z" fill="#8B1414"/>
</svg>
