<svg width="390" height="147" viewBox="0 0 390 147" fill="none" xmlns="http://www.w3.org/2000/svg">
<path d="M1.10085 40.3846V36.4545H19.6172V40.3846H12.7148V59H8.0032V40.3846H1.10085ZM24.8365 59V36.4545H40.0283V40.3846H29.6032V45.7567H39.2467V49.6868H29.6032V55.07H40.0723V59H24.8365ZM50.4575 36.4545L55.004 44.1385H55.1801L59.7486 36.4545H65.1318L58.2515 47.7273L65.2859 59H59.8037L55.1801 51.305H55.004L50.3804 59H44.9202L51.9766 47.7273L45.0523 36.4545H50.4575ZM70.3182 59V36.4545H75.0848V45.7567H84.7613V36.4545H89.517V59H84.7613V49.6868H75.0848V59H70.3182ZM116.335 47.7273C116.335 50.1858 115.869 52.2775 114.937 54.0021C114.012 55.7268 112.75 57.0442 111.15 57.9542C109.558 58.8569 107.767 59.3082 105.778 59.3082C103.774 59.3082 101.976 58.8532 100.384 57.9432C98.7912 57.0331 97.5325 55.7158 96.6078 53.9911C95.6831 52.2665 95.2207 50.1785 95.2207 47.7273C95.2207 45.2687 95.6831 43.1771 96.6078 41.4524C97.5325 39.7277 98.7912 38.4141 100.384 37.5114C101.976 36.6013 103.774 36.1463 105.778 36.1463C107.767 36.1463 109.558 36.6013 111.15 37.5114C112.75 38.4141 114.012 39.7277 114.937 41.4524C115.869 43.1771 116.335 45.2687 116.335 47.7273ZM111.502 47.7273C111.502 46.1347 111.264 44.7917 110.787 43.6982C110.317 42.6046 109.653 41.7753 108.794 41.2102C107.936 40.6451 106.93 40.3626 105.778 40.3626C104.626 40.3626 103.62 40.6451 102.762 41.2102C101.903 41.7753 101.235 42.6046 100.758 43.6982C100.288 44.7917 100.053 46.1347 100.053 47.7273C100.053 49.3198 100.288 50.6629 100.758 51.7564C101.235 52.8499 101.903 53.6792 102.762 54.2443C103.62 54.8094 104.626 55.092 105.778 55.092C106.93 55.092 107.936 54.8094 108.794 54.2443C109.653 53.6792 110.317 52.8499 110.787 51.7564C111.264 50.6629 111.502 49.3198 111.502 47.7273ZM132.483 45.8668V49.5877H122.201V45.8668H132.483ZM158.63 44.3477H153.808C153.72 43.7238 153.54 43.1697 153.269 42.6854C152.997 42.1937 152.648 41.7753 152.223 41.4304C151.797 41.0855 151.305 40.8213 150.748 40.6378C150.197 40.4543 149.599 40.3626 148.953 40.3626C147.786 40.3626 146.77 40.6525 145.904 41.2322C145.038 41.8047 144.366 42.6413 143.889 43.7422C143.412 44.8357 143.174 46.1641 143.174 47.7273C143.174 49.3345 143.412 50.6849 143.889 51.7784C144.374 52.8719 145.049 53.6976 145.915 54.2553C146.781 54.8131 147.783 55.092 148.92 55.092C149.559 55.092 150.15 55.0076 150.693 54.8388C151.243 54.67 151.731 54.4241 152.157 54.1012C152.582 53.771 152.935 53.371 153.214 52.9013C153.5 52.4316 153.698 51.8958 153.808 51.294L158.63 51.3161C158.505 52.3509 158.193 53.349 157.694 54.3104C157.202 55.2644 156.538 56.1194 155.701 56.8754C154.872 57.6239 153.881 58.2184 152.729 58.6587C151.584 59.0917 150.289 59.3082 148.843 59.3082C146.832 59.3082 145.034 58.8532 143.449 57.9432C141.871 57.0331 140.623 55.7158 139.706 53.9911C138.796 52.2665 138.341 50.1785 138.341 47.7273C138.341 45.2687 138.803 43.1771 139.728 41.4524C140.653 39.7277 141.908 38.4141 143.493 37.5114C145.078 36.6013 146.862 36.1463 148.843 36.1463C150.15 36.1463 151.36 36.3298 152.476 36.6967C153.599 37.0637 154.593 37.5994 155.459 38.304C156.325 39.0012 157.03 39.8562 157.573 40.869C158.123 41.8817 158.476 43.0413 158.63 44.3477ZM183.384 36.4545V59H178.672V40.3295H169.557V59H164.845V36.4545H183.384ZM190.092 59V36.4545H205.284V40.3846H194.859V45.7567H204.502V49.6868H194.859V55.07H205.328V59H190.092ZM224.883 59L217.639 49.3896H216.01V59H211.243V36.4545H216.01V45.4595H216.968L224.454 36.4545H230.387L221.591 46.9126L230.795 59H224.883ZM234.503 40.3846V36.4545H253.019V40.3846H246.117V59H241.405V40.3846H234.503ZM258.239 59V36.4545H267.134C268.844 36.4545 270.3 36.7811 271.504 37.4343C272.708 38.0801 273.625 38.9792 274.256 40.1314C274.895 41.2763 275.214 42.5973 275.214 44.0945C275.214 45.5916 274.891 46.9126 274.245 48.0575C273.599 49.2024 272.664 50.0941 271.438 50.7326C270.22 51.3711 268.744 51.6903 267.012 51.6903H261.343V47.8704H266.242C267.159 47.8704 267.915 47.7126 268.51 47.397C269.111 47.0741 269.559 46.6301 269.853 46.065C270.154 45.4925 270.304 44.8357 270.304 44.0945C270.304 43.3459 270.154 42.6927 269.853 42.1349C269.559 41.5698 269.111 41.1332 268.51 40.8249C267.908 40.5094 267.145 40.3516 266.22 40.3516H263.005V59H258.239Z" fill="white"/>
<path d="M390 73.7675H350.402L348.423 79.6531V68.952L346.443 82.8635V66.2768L344.463 79.6531L343.803 68.952L340.503 90.3542V56.6458L337.863 80.1882L336.543 68.952L333.904 105.336V42.7343L331.264 84.4686L329.944 63.6015L326.644 146V1L323.344 85.5387V61.9963L320.704 105.336V42.7343L316.745 80.1882L316.085 68.952L313.445 90.8893V56.6458L311.465 73.7675H308.825L306.845 82.3284V66.2768L306.185 73.7675H0" stroke="#FFEEEE" stroke-width="2"/>
<path d="M126.25 127C125.163 120.466 115.424 115.898 93 107.25C167.015 99.1968 190.264 97.3636 205 98.1757C145.229 122.801 141.648 122.152 126.25 127Z" fill="#BE2222"/>
<path d="M91 107C144.835 100.89 171.498 98.4651 205 98" stroke="white"/>
<path d="M254 97.4545L206.041 98H205C216.46 88.9036 223.201 86.3211 235.413 86C245.355 86.5454 249.445 89.5371 254 97.4545Z" fill="white" stroke="white"/>
<path d="M225.221 118.133C246.966 116.386 253.663 112.722 253.999 98.5015C207.199 117.361 187.599 123.014 168.893 119.758C189.127 124.652 201.487 124.212 225.221 118.133Z" fill="white"/>
<path d="M51.5403 124.135C42.7619 123.767 32.1718 121.419 24.5566 120.128C16.9415 118.837 23.9707 119.56 23.9707 119.56C46.547 118.118 58.0882 114.885 78.5522 108.857C73.5516 119.338 68.8654 123.861 51.5403 124.135Z" fill="white"/>
<path d="M78.5522 108.857C73.5516 119.338 68.8654 123.861 51.5403 124.135C42.7619 123.767 32.1718 121.419 24.5566 120.128C16.9415 118.837 23.9707 119.56 23.9707 119.56C46.547 118.118 58.0882 114.885 78.5522 108.857ZM78.5522 108.857C81.7184 107.075 87.8101 110.694 86.471 108.001C85.1319 105.308 90.7602 106.686 93.9994 108.001C107.8 112.343 124.278 120.425 126.499 127.001C157.013 117.294 169.858 112.466 205 98.0015M253.999 98.5015C253.663 112.722 246.966 116.386 225.221 118.133C201.487 124.212 189.127 124.652 168.893 119.758C187.599 123.014 207.199 117.361 253.999 98.5015Z" stroke="white"/>
</svg>
