<svg width="29" height="29" viewBox="0 0 29 29" fill="none" xmlns="http://www.w3.org/2000/svg">
<path d="M26.5827 10.402V20.2402C26.5827 21.2433 26.199 22.2084 25.5101 22.9375C24.8212 23.6666 23.8794 24.1045 22.8779 24.1613L22.6556 24.1673H6.3431C5.34002 24.1674 4.37493 23.7836 3.64582 23.0947C2.91671 22.4058 2.47885 21.464 2.42206 20.4626L2.41602 20.2402V10.402L14.0788 16.5113C14.2086 16.5793 14.3529 16.6148 14.4993 16.6148C14.6458 16.6148 14.7901 16.5793 14.9198 16.5113L26.5827 10.402ZM6.3431 4.83398H22.6556C23.629 4.83387 24.5678 5.19527 25.2898 5.8481C26.0119 6.50093 26.4657 7.39865 26.5633 8.36715L14.4993 14.6867L2.43535 8.36715C2.52902 7.43711 2.95137 6.57098 3.62646 5.92446C4.30156 5.27794 5.18513 4.89342 6.11835 4.84003L6.3431 4.83398H22.6556H6.3431Z" fill="#8B1414"/>
</svg>
