<svg width="30" height="29" viewBox="0 0 30 29" fill="none" xmlns="http://www.w3.org/2000/svg">
<path d="M3.73255 11.7654C3.72946 11.9491 3.78393 12.1293 3.88872 12.2823C3.99352 12.4352 4.1437 12.5536 4.31934 12.6218L13.2762 16.1027L16.8594 24.8045C16.9287 24.9728 17.0482 25.1171 17.2027 25.2187C17.3572 25.3203 17.5395 25.3746 17.7261 25.3745H17.741C17.93 25.3716 18.1136 25.3131 18.2675 25.2066C18.4214 25.1001 18.5384 24.9507 18.603 24.7782L26.0663 4.84071C26.1274 4.67851 26.1395 4.50274 26.1012 4.33408C26.0629 4.16542 25.9758 4.01091 25.8501 3.88873C25.7244 3.76656 25.5654 3.68181 25.3919 3.64448C25.2183 3.60714 25.0373 3.61877 24.8703 3.67799L4.3464 10.928C4.16874 10.9909 4.01493 11.1047 3.90532 11.2544C3.79571 11.4041 3.73546 11.5826 3.73255 11.7663V11.7654Z" fill="#8B1414"/>
</svg>
